<svg xmlns="http://www.w3.org/2000/svg" viewBox="0 0 40 40"><g fill="none" fill-rule="evenodd"><path fill="#FAC212" d="M36.88 14.75c-3.74 4.52-11.14 11.32-21.85 11.32-8.83 0-13.11-4.03-13.33-7.95l.08 16.94h34.44l.66-20.3z"/><path fill="#2D2E30" fill-rule="nonzero" d="M9.69 3a1 1 0 011 1v1.37h2.37V4a1 1 0 011-1h2.75a1 1 0 011 1v1.37h2.38V4a1 1 0 011-1h2.75a1 1 0 011 1v5.13a1 1 0 01-1 1h-2.75a1 1 0 01-1-1v-.76H17.8v.76a1 1 0 01-1 1h-2.75a1 1 0 01-1-1v-.76H10.7v.76a1 1 0 01-1 1H6.94a1 1 0 01-1-1v-.76H3v24.88h32V8.37h-2.94v.76a1 1 0 01-1 1h-2.75a1 1 0 01-1-1v-.76H25v-3h2.31V4a1 1 0 011-1h2.75a1 1 0 011 1v1.37H36a2 2 0 012 2v26.88a2 2 0 01-2 2H2a2 2 0 01-2-2V7.37c0-1.1.9-2 2-2h3.94V4a1 1 0 011-1h2.75zM5.75 25.56v4.94h2.56v2H3.75v-6.94h2zM20.19 12.5v3.28a6.84 6.84 0 11-7.44 6.81h3v.2a3.84 3.84 0 104.44-4V22l-7.13-4.75 7.13-4.75zM8.69 5h-.75v3.13h.75V5zm14.25 0h-.75v3.13h.75V5zM15.8 5h-.75v3.13h.75V5zm14.25 0h-.75v3.13h.75V5z"/></g></svg>
