<svg xmlns="http://www.w3.org/2000/svg" viewBox="0 0 40 40"><g fill="none" fill-rule="evenodd"><path fill="#FAC212" d="M11.06 11.84c-1.49 2.27-2.48 5.6-2.48 10.06 0 5.4 1.68 10 3.94 13.73l-10.68.08v-23.3zm8.78 6.87v6.13h1.37l-2.82 3.53-2.83-3.53h1.38v-6.13h2.9zM29.5 2L33 3v8.5H6.5l2-1.5 21-8z"/><path fill="#2D2E30" fill-rule="nonzero" d="M34.6 4.84l-.09 5.52h.26a2 2 0 012 2v7.96A2 2 0 0138 22.17v3.35a2 2 0 01-1.23 1.84v7.97a2 2 0 01-2 2H2a2 2 0 01-2-2V12.36a2 2 0 011.82-2L27.58.84l.19-.05c4.16-.9 6.83.48 6.83 4.06zm-.83 8.52H3v20.97h30.77v-6.81h-2.35a2 2 0 01-2-2v-3.35c0-1.1.9-2 2-2h2.35v-6.81zM5.9 26.29v5.13h3.9v2H3.9V26.3h2zm15.94-9.58v6.13h3.53l-6.98 8.73-6.99-8.73h3.54v-6.13h6.9zm-2 2h-2.9v6.13h-1.38l2.83 3.53 2.82-3.53h-1.37v-6.13zM35 23.16h-2.58v1.36H35v-1.36zm-6.36-19.5l-.15.03-18 6.67H31.5l.09-5.52c0-1.28-.64-1.65-2.96-1.18z"/></g></svg>
