<svg xmlns="http://www.w3.org/2000/svg" viewBox="0 0 40 40"><g fill="none" fill-rule="evenodd"><path fill="#FAC212" d="M10.42 25.98a1.95 1.95 0 110 3.9 1.95 1.95 0 010-3.9zm19.61 0a1.95 1.95 0 110 3.9 1.95 1.95 0 010-3.9zM16.87 5.17l8.87.08v11.03h10.42l1.23 3.07v7.97h-3.07l-3.06-3.68-4.3 1.22-1.22 2.46-8.73-1.1a25.7 25.7 0 002.42-10.88c0-4.53-1.03-7.9-2.56-10.17z"/><path fill="#2D2E30" fill-rule="nonzero" d="M27.24 3.75v4.3h3.8a3.5 3.5 0 013.26 2.2l.06.18 1.27 3.82 3.26 3.25v10.7h-3.07a5.8 5.8 0 01-11.57 0H16.2a5.8 5.8 0 01-11.56 0H2.45v-3h2.86a5.79 5.79 0 0110.22 0h9.4a5.79 5.79 0 0110.21 0h.75v-6.46l-.96-.96H24.24V6.75H4.9v-3h22.34zM10.42 25.14a2.8 2.8 0 00-.88.14l.09-.03-.16.05.07-.02-.15.05.08-.03-.16.07.08-.04-.14.06.06-.02-.15.07.1-.05-.13.06.03-.01a2.79 2.79 0 00-.42.26l-.12.1a2.8 2.8 0 00-.12.1l.04-.03a2.8 2.8 0 00-.09.08l.05-.04a2.8 2.8 0 00-.12.12l.07-.08a2.8 2.8 0 00-.13.14l.06-.06a2.8 2.8 0 00-.1.11l.04-.05a2.8 2.8 0 00-.1.13l.06-.08-.11.14.05-.06a2.8 2.8 0 00-.1.12l.05-.06a2.8 2.8 0 00-.1.13l.06-.07-.1.14.05-.07-.1.15.05-.08-.08.15.04-.07-.07.13.03-.06-.08.15.05-.1-.07.16.02-.06-.05.14.03-.08-.07.17.04-.09-.06.17.02-.08-.04.15.02-.07-.05.16.03-.09-.04.15.01-.06-.03.16.02-.1-.04.18.02-.08a2.79 2.79 0 105.53.52 2.8 2.8 0 00-.06-.6l.01.08-.03-.16.02.08a2.77 2.77 0 00-.05-.17l.03.09-.05-.16.02.07-.04-.15.02.08a2.77 2.77 0 00-.06-.17l.04.1a2.77 2.77 0 00-.07-.18l.03.08-.07-.16.04.08a2.78 2.78 0 00-.06-.13l.02.05-.06-.13.04.08a2.78 2.78 0 00-.09-.16l.05.08-.09-.15.04.07a2.79 2.79 0 00-.07-.13l.03.06a2.8 2.8 0 00-.23-.33l.03.04a2.8 2.8 0 00-.1-.13l.07.1a2.8 2.8 0 00-.1-.13l.02.03a2.8 2.8 0 00-.1-.1l.07.07a2.8 2.8 0 00-.12-.12l.05.05a2.8 2.8 0 00-.09-.1l.04.05a2.8 2.8 0 00-.67-.47l.06.02a2.78 2.78 0 00-.12-.06l.06.04-.14-.07.08.03-.17-.07.1.04-.17-.07.07.03-.14-.05.07.02a2.77 2.77 0 00-.17-.05l.1.03-.16-.05.06.02-.16-.04.1.02a2.8 2.8 0 00-.72-.1zm19.61 0a2.8 2.8 0 00-.87.14l.08-.03-.16.05.08-.02-.15.05.07-.03-.16.07.09-.04-.14.06.05-.02-.15.07.1-.05-.13.06.03-.01-.15.08-.12.08-.14.1-.13.1a2.8 2.8 0 00-.12.1l.04-.03a2.8 2.8 0 00-.08.08l.04-.04a2.8 2.8 0 00-.12.12l.08-.08a2.8 2.8 0 00-.1.1l.02-.02a2.8 2.8 0 00-.1.11l.07-.08-.13.16.06-.08-.1.14.04-.06a2.8 2.8 0 00-.1.12l.05-.06a2.8 2.8 0 00-.09.13l.05-.07-.1.14.05-.07-.09.15.05-.08-.09.15.04-.07-.07.13.03-.06-.06.13.03-.07-.07.15.04-.08-.07.16.03-.08-.06.17.03-.09-.06.17.03-.08-.05.15.02-.07-.05.16.03-.09-.04.15.01-.06-.03.16.02-.1-.03.18.01-.08a2.8 2.8 0 002.74 3.3 2.8 2.8 0 002.72-3.4l.02.1a2.77 2.77 0 00-.1-.4l.02.07-.05-.16.03.1a2.77 2.77 0 00-.07-.18l.04.08-.07-.16.03.08-.07-.15.04.07-.07-.13.03.06-.07-.14.04.08-.08-.15.04.07-.09-.14.05.07a2.8 2.8 0 00-.23-.33l.02.04a2.8 2.8 0 00-.1-.13l.08.1a2.8 2.8 0 00-.11-.13l.02.03a2.8 2.8 0 00-.1-.11l.08.08a2.8 2.8 0 00-.13-.12l.05.04a2.8 2.8 0 00-.09-.08l.04.04a2.8 2.8 0 00-.12-.12l-.12-.1a2.8 2.8 0 00-.14-.09l-.13-.08a2.79 2.79 0 00-.15-.08l.05.02a2.78 2.78 0 00-.12-.06l.07.04-.15-.07.08.03-.16-.07.08.04-.16-.07.08.03-.14-.05.06.02a2.77 2.77 0 00-.16-.05l.1.03-.17-.05.07.02-.16-.04.1.02a2.8 2.8 0 00-.73-.1zM9.2 19.57v2H1.23v-2h7.96zm-1.22-4.9v2H0v-2h7.97zm23.07-3.63h-3.8v3.74h5.4l-1.12-3.4a.5.5 0 00-.39-.33h-.09zM10.42 9.77v2H2.45v-2h7.97z"/></g></svg>
