<svg width="213" height="24" viewBox="0 0 213 24" fill="none" xmlns="http://www.w3.org/2000/svg">
<path fill-rule="evenodd" clip-rule="evenodd" d="M138 1H213L207.532 12L213 23H138L144.703 12.2653L138 1Z" fill="#FAC212"/>
<path fill-rule="evenodd" clip-rule="evenodd" d="M149 5.16342H155.893V7.1905H153.562V19.3539H151.331V7.1905H149V5.16342ZM159.097 11.1435H162.157V13.1706H159.097V17.327H162.949V19.3539H156.867V5.16342H162.949V7.1905H159.097V11.1435ZM171.767 5.16342L169.436 12.0557L171.928 19.3539H169.577L167.753 13.7386L165.908 19.3539H163.82L166.314 12.0557L163.982 5.16342H166.293L167.976 10.3941L169.699 5.16342H171.767ZM175.274 19.3539H173.044V5.16342H175.274V11.2446H177.809V5.16342H180.079V19.3539H177.809V13.2717H175.274V19.3539ZM183.749 16.0905C183.749 16.6035 183.853 16.9651 184.062 17.1745C184.272 17.3837 184.552 17.489 184.904 17.489C185.255 17.489 185.535 17.3837 185.745 17.1745C185.955 16.9651 186.06 16.6035 186.06 16.0905V8.42681C186.06 7.91338 185.955 7.5522 185.745 7.34166C185.535 7.13238 185.255 7.02896 184.904 7.02896C184.552 7.02896 184.272 7.13238 184.062 7.34166C183.853 7.5522 183.749 7.91338 183.749 8.42681V16.0905ZM181.518 8.56906C181.518 7.42033 181.809 6.5384 182.39 5.92252C182.971 5.30912 183.809 5 184.904 5C185.999 5 186.836 5.30912 187.418 5.92252C187.998 6.5384 188.29 7.42033 188.29 8.56906V15.9484C188.29 17.097 187.998 17.9791 187.418 18.5929C186.836 19.2082 185.999 19.5161 184.904 19.5161C183.809 19.5161 182.971 19.2082 182.39 18.5929C181.809 17.9791 181.518 17.097 181.518 15.9484V8.56906Z" fill="white"/>
<path fill-rule="evenodd" clip-rule="evenodd" d="M36.8802 22.0327L31.4281 22.0283V1.91293H34.9204V16.9125L39.5525 1.91293H43.8647V22.0236L40.3366 22.028V10.5199L36.8802 22.0327ZM54.947 17.2623L57.6188 1.91293H63.0715V22.0292L59.3651 22.0301V10.2969L57.3981 22.0288L52.1355 22.0283L50.029 10.5463V22.031L46.6086 22.0314V1.91293H52.0604L54.947 17.2623ZM69.8421 22.0231L65.9221 22.0197V1.91293H78.2872V22.0202L74.2966 22.0648V5.47654H69.8421V22.0231ZM85.0578 10.6796H90.438V14.2432H85.0578V18.4405L91.8283 18.5107V22.0266L81.1378 22.0292V1.91293H91.8283V5.47654H85.0578V10.6796ZM100.024 1.91293C101.996 1.91293 103.463 2.43626 104.425 3.48122C105.372 4.5096 105.853 6.01248 105.868 7.98563C105.868 9.7718 105.689 11.3019 104.425 12.6745C103.463 13.7194 101.995 14.242 100.024 14.242H98.1714V22.0283L94.2516 22.0314V1.91293H100.024ZM98.1714 5.47654V10.6796H100.024C100.642 10.6796 101.117 10.5121 101.449 10.1797C101.782 9.84773 101.949 9.23062 101.949 8.32717V7.82854C101.949 6.92549 101.782 6.30799 101.449 5.97513C101.117 5.64314 100.642 5.47654 100.024 5.47654H98.1714ZM113.107 22.0254L107.685 22.0236V1.91293H111.177V16.4694L115.81 1.91293H120.122V22.0283L116.594 22.028V10.3225L113.107 22.0254ZM122.606 22.0214C122.813 21.3631 122.844 20.6892 122.834 19.9792C122.834 18.6727 122.889 16.2203 123.229 15.0886C123.489 14.0927 124.22 12.9219 125.218 12.5183C123.507 11.7107 122.659 10.4201 122.652 8.80626V7.6502C122.652 5.72566 123.109 4.28832 124.024 3.33801C124.938 2.38888 126.417 1.91293 128.461 1.91293H134.397V22.0283L130.456 22.0262V14.2498H129.102C128.199 14.2498 127.545 14.4871 127.142 14.9623C126.738 15.4366 126.536 18.7082 126.536 19.8734C126.536 20.5877 126.476 21.3706 126.326 22.0288L122.606 22.0214ZM128.567 5.47654C127.879 5.47654 127.373 5.67827 127.053 6.08226C126.732 6.48637 126.572 7.13948 126.572 8.04245V8.04899C126.572 9.04709 126.779 9.73532 127.196 10.1164C127.61 10.496 128.187 10.6856 128.923 10.6856H130.456V5.47654H128.567Z" fill="#E83636"/>
<path fill-rule="evenodd" clip-rule="evenodd" d="M2.84496 0H24.8566C26.4213 0 27.7015 1.2802 27.7015 2.84496V21.0544C27.7015 22.6191 26.4213 23.8993 24.8566 23.8993H2.84496C1.28025 23.8993 0 22.6191 0 21.0544V2.84496C0 1.2802 1.28025 0 2.84496 0Z" fill="#E83636"/>
<path fill-rule="evenodd" clip-rule="evenodd" d="M14.0297 19.1549C7.00887 19.1549 6.5331 18.9974 6.28634 17.49C3.94372 16.2121 2.37996 12.7737 3.3318 10.6822C4.47783 8.16367 6.89083 8.21769 8.18753 8.97361C9.33119 7.0238 11.6626 6.67078 13.1654 7.58278C13.1678 7.06351 13.1239 6.40521 13.1273 5.87542C13.0476 5.90117 12.9623 5.91439 12.8743 5.91439C12.4065 5.91439 12.0272 5.53528 12.0272 5.06771C12.0272 4.5998 12.4065 4.2203 12.8743 4.2203C13.0277 4.2203 13.179 4.26345 13.3114 4.33942C12.7906 3.69252 13.2262 2.76677 14.0297 2.76677V2.76716C14.8327 2.76716 15.2684 3.69286 14.7475 4.33977C14.8806 4.26472 15.0316 4.22104 15.1846 4.22104C15.6529 4.22104 16.0317 4.5998 16.0317 5.06811C16.0317 5.53602 15.6529 5.91513 15.1846 5.91513C15.0967 5.91513 15.0118 5.90117 14.9321 5.87582C14.9359 6.40683 14.8918 7.06351 14.8938 7.5844C16.3964 6.67153 18.7281 7.02494 19.8717 8.97483C21.1684 8.21844 23.582 8.16441 24.7271 10.6822C25.6793 12.7748 24.1155 16.2129 21.7731 17.4904C21.5258 18.9974 21.0506 19.1558 14.0297 19.1558V19.1549ZM14.0297 21.709H6.49466C6.60981 20.4924 7.2973 20.303 8.20276 20.2966H19.857C20.7625 20.303 21.4494 20.4924 21.5644 21.709H14.0297ZM18.6013 16.6337C18.6013 16.6337 22.7263 15.1459 22.7263 12.182C22.7263 10.3575 20.562 10.2026 20.3369 12.2267C20.1747 13.6884 19.7613 14.9785 18.6013 16.6337ZM15.1721 11.5276V17.4453C15.1721 17.4453 18.4093 15.6184 18.4093 12.2124C18.4093 8.54662 15.1391 8.57739 15.1721 11.5276ZM9.45848 16.6337C9.45848 16.6337 5.33306 15.1459 5.33306 12.1805C5.33306 10.3575 7.49768 10.2022 7.72232 12.2263C7.88508 13.6884 8.2981 14.9785 9.45848 16.6337ZM12.8871 11.5269V17.4449C12.8871 17.4449 9.65044 15.6169 9.65044 12.2116C9.65044 8.54623 12.9203 8.57617 12.8871 11.5269Z" fill="#FEFEFE"/>
<g clip-path="url(#clip0_6_96)">
<path d="M204.027 12.316C202.514 13.2168 200.564 13.7109 198.5 13.7109C196.436 13.7109 194.486 13.2168 192.973 12.316C192.778 12.8989 192.672 13.5228 192.672 14.1716C192.672 14.4639 192.693 14.751 192.735 15.0318C192.88 15.1429 193.033 15.2508 193.196 15.3547C194.606 16.2571 196.49 16.754 198.5 16.754C200.51 16.754 202.394 16.2571 203.804 15.3547C203.967 15.2508 204.12 15.1429 204.265 15.0318C204.307 14.751 204.328 14.4639 204.328 14.1716C204.328 13.5228 204.222 12.8989 204.027 12.316ZM194.957 14.7268C194.826 15.0366 194.525 15.2233 194.208 15.2233C194.103 15.2233 193.997 15.2025 193.894 15.1594C193.481 14.9854 193.286 14.5097 193.461 14.0963C193.635 13.6835 194.111 13.4897 194.524 13.6637C194.937 13.8377 195.131 14.3134 194.957 14.7268ZM197.828 15.2421C197.778 15.6529 197.428 15.9547 197.023 15.9547C196.99 15.9547 196.957 15.9527 196.924 15.9486C196.479 15.8943 196.163 15.4891 196.217 15.0448C196.271 14.5995 196.676 14.283 197.121 14.3378C197.566 14.3921 197.883 14.7968 197.828 15.2421ZM200.027 15.9547C199.995 15.9582 199.963 15.9602 199.931 15.9602C199.525 15.9602 199.175 15.6564 199.126 15.2441C199.073 14.7993 199.391 14.3956 199.837 14.3428C200.282 14.2901 200.685 14.608 200.738 15.0529C200.791 15.4982 200.473 15.902 200.027 15.9547ZM203.06 15.1787C202.959 15.2207 202.853 15.241 202.75 15.241C202.432 15.241 202.129 15.0524 202 14.7404C201.828 14.3266 202.024 13.8519 202.438 13.6799C202.851 13.508 203.327 13.7038 203.499 14.1176C203.671 14.5315 203.474 15.0068 203.06 15.1787Z" fill="#25792D"/>
<path d="M193.038 16.209C193.864 18.4231 195.998 20 198.5 20C201.002 20 203.136 18.4231 203.962 16.209C202.459 17.0856 200.534 17.5655 198.5 17.5655C196.466 17.5655 194.541 17.0856 193.038 16.209Z" fill="#E83636"/>
<path d="M198.889 6.57227V5H198.077V6.57227H196.809V6.87354V7.69219V8.58752C195.288 9.05058 193.994 10.1385 193.281 11.5585C194.681 12.4238 196.53 12.8994 198.496 12.8994C200.462 12.8994 202.3 12.4238 203.7 11.5585C202.987 10.1385 201.729 9.05053 200.157 8.58752V7.69219V6.87354V6.57227H198.889Z" fill="#E83636"/>
</g>
<path d="M198.48 1V3V5" stroke="#E83636" stroke-width="0.8"/>
<defs>
<clipPath id="clip0_6_96">
<rect width="15" height="15" fill="white" transform="translate(191 5)"/>
</clipPath>
</defs>
</svg>
