<svg xmlns="http://www.w3.org/2000/svg" viewBox="0 0 40 40"><g fill="none" fill-rule="evenodd"><path fill="#FAC212" d="M24.52 5.27h-2.17c-3.27 0-6.44 2.07-6.44 8.06 0 5.79 2.9 7.65 6.44 7.65h2.17V5.28z"/><path fill="#2D2E30" d="M28.58 2v36h-4.06V24.2h-3.38L14.7 38H10l7.07-14.75c-3.32-1.61-5.54-4.53-5.54-9.92C11.53 5.77 16.55 2 22.51 2h6.07zm-4.06 3.27h-2.17c-3.27 0-6.44 2.07-6.44 8.06 0 5.79 2.9 7.65 6.44 7.65h2.17V5.28zm-2.28 1.3v1.5c-2.12 0-3.52 1.55-3.6 4.91v.3h-1.5c0-4.26 1.95-6.6 4.9-6.7l.2-.01z"/></g></svg>
